<?xml version="1.0" encoding="UTF-8" standalone="no"?>
<svg
   xmlns:dc="http://purl.org/dc/elements/1.1/"
   xmlns:cc="http://creativecommons.org/ns#"
   xmlns:rdf="http://www.w3.org/1999/02/22-rdf-syntax-ns#"
   xmlns:svg="http://www.w3.org/2000/svg"
   xmlns="http://www.w3.org/2000/svg"
   xmlns:sodipodi="http://sodipodi.sourceforge.net/DTD/sodipodi-0.dtd"
   xmlns:inkscape="http://www.inkscape.org/namespaces/inkscape"
   width="26"
   height="26"
   viewBox="0 0 26 26"
   version="1.1"
   id="svg6"
   sodipodi:docname="icon.svg"
   inkscape:version="0.92.4 (unknown)"
   inkscape:export-filename="/home/pieter/Downloads/computer-24px.svg.png"
   inkscape:export-xdpi="2000"
   inkscape:export-ydpi="2000">
  <metadata
     id="metadata12">
    <rdf:RDF>
      <cc:Work
         rdf:about="">
        <dc:format>image/svg+xml</dc:format>
        <dc:type
           rdf:resource="http://purl.org/dc/dcmitype/StillImage" />
        <dc:title></dc:title>
      </cc:Work>
    </rdf:RDF>
  </metadata>
  <defs
     id="defs10" />
  <sodipodi:namedview
     pagecolor="#ffffff"
     bordercolor="#666666"
     borderopacity="1"
     objecttolerance="10"
     gridtolerance="10"
     guidetolerance="10"
     inkscape:pageopacity="0"
     inkscape:pageshadow="2"
     inkscape:window-width="1920"
     inkscape:window-height="1029"
     id="namedview8"
     showgrid="false"
     inkscape:zoom="19.946304"
     inkscape:cx="16.123563"
     inkscape:cy="16.739416"
     inkscape:window-x="0"
     inkscape:window-y="0"
     inkscape:window-maximized="1"
     inkscape:current-layer="svg6"
     fit-margin-top="0"
     fit-margin-left="0"
     fit-margin-right="0"
     fit-margin-bottom="0" />
  <g
     id="g969"
     transform="translate(1,-1)">
    <path
       style="fill:none"
       inkscape:connector-curvature="0"
       id="path2"
       d="M 0,2 H 24 V 26 H 0 Z" />
    <path
       inkscape:connector-curvature="0"
       id="path4"
       d="m 20,20 c 1.1,0 1.99,-0.9 1.99,-2 L 22,8 C 22,6.9 21.1,6 20,6 H 4 C 2.9,6 2,6.9 2,8 v 10 c 0,1.1 0.9,2 2,2 H 0 v 2 H 24 V 20 Z M 4,8 H 20 V 18 H 4 Z" />
    <g
       transform="matrix(0,0.00799466,-0.00799466,0,13.608804,9.192076)"
       id="g828">
      <g
         transform="matrix(0.1,0,0,-0.1,0,512)"
         id="g826">
        <path
           inkscape:connector-curvature="0"
           d="m 10197.083,-925.90178 c -82.59,28.4257 -410.1921,1.3435 -663.2658,-51.4773 -379.0093,-81.17592 -722.8046,-222.03162 -1112.6326,-454.74042 -222.0315,-132.6532 -691.6918,-464.2863 -772.8677,-545.4621 -79.8323,-79.8324 -93.4088,-71.7714 -425.0418,197.6363 -552.2504,449.437 -917.6832,698.48 -1306.1677,886.57042 -768.8372,370.8776 -1572.8176,370.8776 -2341.6548,0 -437.2041,-212.48552 -693.0354,-389.82792 -1534.9167,-1072.04452 -70.4278,-56.8514 -94.7523,-67.7408 -127.2085,-51.4066 -21.7082,8.1317 -151.6037,102.8133 -286.9439,205.768 -465.6299,354.614 -877.09531,584.7773 -1298.10668,729.5927 -282.913425,96.09592 -480.47906,136.68382 -762.11969,161.07902 -272.02398,22.9809 -385.72675,-20.294 -430.4159,-159.73552 -54.16438,-170.5541 81.17586,-322.1578 281.49921,-314.0261 45.96194,0 87.96408,-4.1012 96.09581,-12.2329 8.13173,-8.1318 14.91996,-345.1388 14.91996,-748.4725 0,-500.773 9.47523,-740.3408 28.42569,-748.5432 28.42569,-12.1623 255.83124,20.3646 389.827975,56.7806 l 67.74083,18.9505 2.687,660.5792 c 0,554.9373 6.78823,661.8519 36.55742,664.6096 33.87042,4.0305 438.547625,-151.6037 464.286305,-177.3424 6.78823,-6.7882 12.16224,-215.2433 12.16224,-464.2863 0,-395.2727 5.37401,-454.811 39.24443,-453.4675 44.61844,1.3435 364.08929,185.4741 422.28419,243.669 28.42571,28.4256 39.24441,77.1453 39.24441,193.5351 1.3435,96.0958 9.4752,155.7049 25.7387,155.7049 37.9009,-2.687 473.7615,-330.2189 473.7615,-357.3718 0,-48.7903 -640.21441,-488.6108 -942.14905,-647.0027 -350.58354,-182.7164 -763.39248,-297.8334 -1135.61349,-318.0566 -201.66686,-12.1622 -269.40769,-47.3762 -308.65211,-159.7354 -48.71966,-135.4109 12.16223,-261.2052 150.26019,-309.9249 133.99673,-47.3054 664.609665,28.4964 1016.53671,144.8155 437.20414,147.5732 1028.69895,490.0249 1475.44905,858.1447 58.1949,50.1339 123.178,90.6511 142.1284,93.3381 25.7387,4.1012 102.8841,-48.7196 266.65,-182.7871 558.9679,-456.1546 933.9466,-720.1175 1277.742,-896.0457 858.074,-438.4769 1689.2073,-438.4769 2547.3521,0.071 343.7953,175.9282 718.7741,439.8911 1277.742,896.0457 157.0484,127.2085 240.9113,186.7469 265.3064,184.1306 16.2635,-2.687 105.5711,-62.2961 196.2222,-133.9967 430.4866,-343.7953 969.0898,-657.8214 1372.4942,-798.6064 361.4023,-128.6227 904.1775,-213.8998 1062.5695,-166.5236 136.684,41.9314 204.425,174.5847 154.361,311.3391 -39.244,112.3592 -106.985,147.5732 -308.652,159.7354 -372.2915,20.294 -785.0297,135.3402 -1135.6133,318.0566 -303.1367,159.7354 -942.0784,598.2831 -942.0076,647.0027 0,35.2139 577.9183,456.1546 598.283,435.7899 4.0305,-4.0305 9.4752,-112.2885 10.8187,-240.9112 0,-127.2793 10.8188,-240.9113 21.6375,-251.7301 29.7692,-29.7692 358.7153,-209.7985 412.8797,-226.062 24.3951,-8.1317 50.0631,-9.4752 54.0936,-5.4447 4.0305,4.0305 9.546,228.749 10.8188,498.1567 1.3435,342.4518 10.8187,498.1567 32.4562,519.7942 17.6069,17.6069 115.0462,60.8819 219.2738,97.51 154.2907,54.1644 193.5351,60.8819 217.9303,36.4867 21.6375,-21.6375 29.7692,-221.9608 31.1834,-667.2966 0,-498.086 9.5459,-645.6592 35.2139,-671.3272 62.2961,-62.2961 388.4849,-96.1665 437.275,-47.3762 18.95,18.9505 28.426,277.4687 28.426,751.2303 0,644.3156 5.374,725.4915 42.002,732.2797 93.409,14.9199 173.241,56.8514 204.354,106.9145 94.681,148.846 41.79,312.61192 -121.906,368.11982 z M 7083.8336,-2433.7362 c -39.2444,-39.2444 -89.3783,-73.1148 -109.6723,-77.1454 -25.6679,-1.3435 -90.7218,39.2445 -201.6668,128.5521 -92.0653,73.1148 -174.5847,133.9967 -185.4741,136.6837 -10.8188,2.7577 -20.294,-131.3097 -21.6375,-297.8334 0,-165.1801 -10.8187,-311.3391 -22.981,-323.5013 -32.5269,-32.5269 -461.5286,-326.1884 -476.4485,-324.8449 -6.7882,-1.4142 -12.1623,296.4192 -14.92,659.2357 v 660.5791 l -63.6396,44.6892 c -82.5901,60.9526 -366.847,201.6668 -404.7479,201.6668 -21.6375,0 -31.1834,-250.3865 -31.1127,-916.4104 v -917.6831 l -63.6396,-28.4257 c -87.9641,-36.4867 -385.7268,-117.7333 -414.1525,-110.9451 -13.5764,2.6871 -22.9809,475.1051 -22.9809,1051.6799 -1.3435,724.1481 -9.4753,1054.4376 -29.7692,1074.7316 -32.4562,32.4562 -419.6679,48.7196 -450.7806,17.6069 -10.8187,-10.8187 -20.294,-496.7424 -20.294,-1076.1457 1.4143,-580.6761 -6.7175,-1062.5694 -16.1927,-1072.0446 -18.9505,-18.9504 -232.7796,18.9505 -387.0703,70.4279 l -111.0157,35.2139 v 955.584 c 0,665.9532 -9.4752,956.9983 -28.4257,956.9983 -24.3245,0 -280.2264,-115.0462 -416.9102,-186.8176 -35.2139,-18.9504 -40.6586,-102.884 -42.0021,-748.5432 0,-460.1851 -9.4752,-726.9058 -25.7387,-726.9058 -22.981,1.3435 -429.0724,263.8923 -471.0745,305.8944 -8.1318,8.1318 -16.2635,189.5046 -16.2635,400.6467 -1.3435,261.276 -10.8187,381.767 -29.7692,373.5645 -14.8492,-6.7882 -124.5215,-89.3075 -243.5983,-181.3728 -148.9167,-113.7028 -230.0925,-167.8672 -251.8007,-162.4225 -17.607,4.0305 -63.5689,39.2445 -104.2275,79.9031 l -73.1149,73.1148 135.3403,116.3898 c 350.6542,301.8639 808.223,632.1534 1110.0869,804.0511 412.8089,234.1937 745.8562,331.633 1142.4017,335.7343 453.4676,4.0305 809.4251,-102.8841 1298.0359,-393.9292 255.8313,-153.0179 879.853,-619.9205 1065.2564,-797.2629 l 71.7006,-69.0136 z"
           id="path824" />
        <path
           inkscape:connector-curvature="0"
           id="path845"
           d="M -161.29748,1635.7704 V 4879.4618"
           style="fill:none;stroke:#000000;stroke-width:250.16699219;stroke-linecap:round;stroke-linejoin:miter;stroke-miterlimit:4;stroke-dasharray:none;stroke-opacity:1" />
        <path
           inkscape:connector-curvature="0"
           id="path845-8"
           d="m 824.53032,3325.3334 v 2508.155"
           style="fill:none;stroke:#000000;stroke-width:250.16699219;stroke-linecap:round;stroke-linejoin:miter;stroke-miterlimit:4;stroke-dasharray:none;stroke-opacity:1" />
        <path
           inkscape:connector-curvature="0"
           id="path845-6"
           d="M 6331.9279,2036.4513 V 3288.4274"
           style="fill:none;stroke:#000000;stroke-width:250.16699219;stroke-linecap:round;stroke-linejoin:miter;stroke-miterlimit:4;stroke-dasharray:none;stroke-opacity:1" />
        <path
           inkscape:connector-curvature="0"
           id="path845-6-0"
           d="M 7158.7513,2414.316 V 4278.0009"
           style="fill:none;stroke:#000000;stroke-width:250.16699219;stroke-linecap:round;stroke-linejoin:miter;stroke-miterlimit:4;stroke-dasharray:none;stroke-opacity:1" />
        <path
           inkscape:connector-curvature="0"
           id="path845-6-4"
           d="M 7985.5741,1824.86 V 4183.7372"
           style="fill:none;stroke:#000000;stroke-width:250.16699219;stroke-linecap:round;stroke-linejoin:miter;stroke-miterlimit:4;stroke-dasharray:none;stroke-opacity:1" />
        <g
           transform="matrix(0,238.07479,238.07479,0,1887.8927,6653.3539)"
           id="g903">
          <path
             inkscape:connector-curvature="0"
             d="M 9,17 H 7 v -7 h 2 z m 4,0 H 11 V 7 h 2 z m 4,0 h -2 v -4 h 2 z m 2.5,2.1 H 4.5 V 5 h 15 z M 19.5,3 h -15 c -1.1,0 -2,0.9 -2,2 v 14 c 0,1.1 0.9,2 2,2 h 15 c 1.1,0 2,-0.9 2,-2 V 5 c 0,-1.1 -0.9,-2 -2,-2 z"
             id="path889" />
          <path
             style="fill:none"
             inkscape:connector-curvature="0"
             d="M 0,0 H 24 V 24 H 0 Z"
             id="path891" />
        </g>
        <path
           inkscape:connector-curvature="0"
           id="path845-6-6"
           d="m 3664.2648,2222.8696 v 1251.976"
           style="fill:none;stroke:#000000;stroke-width:250.16699219;stroke-linecap:round;stroke-linejoin:miter;stroke-miterlimit:4;stroke-dasharray:none;stroke-opacity:1" />
        <path
           inkscape:connector-curvature="0"
           id="path845-6-0-7"
           d="M 2899.7196,2726.5339 V 4590.2184"
           style="fill:none;stroke:#000000;stroke-width:250.16699219;stroke-linecap:round;stroke-linejoin:miter;stroke-miterlimit:4;stroke-dasharray:none;stroke-opacity:1" />
      </g>
    </g>
  </g>
</svg>
